<svg xmlns="http://www.w3.org/2000/svg" viewBox="0 0 21 24" height="24" width="21"><title>bollard.svg</title><rect fill="none" x="0" y="0" width="21" height="24"></rect><path fill="rgba(23,150,235,0.4)" transform="translate(2 2)" d="M11.1123 15.5334C14.0547 14.3313 16.1289 11.4402 16.1289 8.06445C16.1289 3.6106 12.5186 0 8.06445 0C3.61035 0 0 3.6106 0 8.06445C0 11.4431 2.07812 14.3364 5.02539 15.5366L7.36914 19.5967C7.67969 20.1345 8.45508 20.1345 8.76562 19.5967L11.1123 15.5334ZM7.59961 3.34082C7.67578 3.10449 7.83203 3 8 3C8.16797 3 8.32812 3.11353 8.40039 3.34082L8.85254 4.76367C8.65625 5 8.28809 5.04541 8 5.04541C7.71191 5.04541 7.34375 5 7.15137 4.76367L7.59961 3.34082ZM5.99902 8.41357L6.5752 6.59546C6.89551 7.01367 7.50391 7.09082 8 7.09082C8.49609 7.09082 9.10449 7.01367 9.4248 6.59546L10.001 8.41357C9.73828 8.79297 9.30664 8.979 8.85059 9.06616C8.56445 9.12085 8.26855 9.13647 8 9.13647C7.30371 9.13647 6.42676 9.03174 5.99902 8.41357ZM4.61035 10.0181C4.70215 9.65918 5.04688 9.36353 5.375 9.36353H5.69922L5.5625 9.80444C5.51465 9.94995 5.48242 10.1318 5.5625 10.259C6.0625 11.0454 7.14355 11.1819 8 11.1819C8.85645 11.1819 9.93652 11.0454 10.4375 10.259C10.5176 10.1318 10.4854 9.94995 10.4375 9.80444L10.3008 9.36353H10.625C10.7734 9.36353 10.9248 9.42358 11.0547 9.52271C11.2129 9.64307 11.3389 9.82104 11.3896 10.0181L11.9785 12.3455C12.0664 12.7046 11.8818 13 11.5537 13H4.4502C4.11816 13 3.93359 12.7046 4.02148 12.3455L4.61035 10.0181Z"></path></svg>