<svg xmlns="http://www.w3.org/2000/svg" viewBox="0 0 21 24" height="24" width="21"><title>border_control.svg</title><rect fill="none" x="0" y="0" width="21" height="24"></rect><path fill="rgba(23,150,235,0.4)" transform="translate(2 2)" d="M11.1123 15.5334C14.0547 14.3313 16.1289 11.4402 16.1289 8.06445C16.1289 3.6106 12.5186 0 8.06445 0C3.61035 0 0 3.6106 0 8.06445C0 11.4431 2.07812 14.3364 5.02539 15.5366L7.36914 19.5967C7.48047 19.7891 7.65137 19.9126 7.83887 19.9673C8.1748 20.0657 8.56641 19.9421 8.76562 19.5967L11.1123 15.5334ZM5.87305 3.07153C5.90625 3.04346 5.95605 3.01807 5.99902 3.00732C6.0918 2.98486 6.20312 3.01489 6.27051 3.08032C6.30078 3.10938 7.71094 4.87036 7.73047 4.90332L7.74316 4.92505L7.74512 7.38184L7.74609 9.83911H6.06934H4.3916V7.42114V5.00293L5.79395 5.00171L7.19531 4.99976L7.22168 4.98608C7.26367 4.96313 7.29199 4.91577 7.29199 4.86646C7.29102 4.81494 7.24805 4.76147 7.19434 4.74829C7.18457 4.74585 7.07422 4.74414 6.83984 4.74292L5.84863 4.74146H4.52832L5.18652 3.91797C5.54883 3.46558 5.8584 3.08447 5.87305 3.07153ZM7.34375 6.02051C7.31348 5.92725 7.23438 5.85938 7.13574 5.84375C7.08887 5.83569 5.04883 5.83569 4.99707 5.84326C4.9248 5.85376 4.85059 5.90479 4.8125 5.96826L4.80176 5.98608C4.7959 5.99658 4.79102 6.00806 4.78711 6.03174C4.78418 6.05298 4.78223 6.08398 4.78125 6.1333L4.77734 6.48145V6.9314V7.13159C4.77734 8.28442 4.77539 8.22217 4.8125 8.28931C4.83203 8.32471 4.87891 8.37085 4.91602 8.38965C4.97754 8.42139 4.93164 8.41992 6.06348 8.41992L6.78613 8.41895C7.02539 8.41797 7.13574 8.41602 7.15039 8.41309C7.22559 8.39697 7.29688 8.34155 7.33105 8.27124L7.35059 8.23022L7.35254 7.14087C7.35449 6.14941 7.35352 6.04907 7.34375 6.02051ZM6.9668 8.8645C6.96387 8.81348 6.94336 8.78223 6.89941 8.75977L6.86621 8.74365H6.06641C5.30566 8.74365 5.26465 8.74438 5.24121 8.75562C5.22559 8.76245 5.21191 8.77319 5.2002 8.78613L5.18262 8.80811C5.16992 8.82788 5.16309 8.8501 5.16309 8.87134C5.16309 8.89795 5.17773 8.93237 5.19824 8.95532L5.20508 8.96338C5.22363 8.98486 5.23047 8.99365 5.37695 8.99683L5.6543 8.99829L5.91113 8.9978L6.0791 8.99756L6.88574 8.99585L6.91309 8.97656C6.93652 8.95898 6.95215 8.93945 6.95996 8.9165C6.96582 8.90088 6.96777 8.88354 6.9668 8.8645ZM5.0332 7.12964L5.03516 8.16162H5.09766H5.16016L5.16699 8.09204C5.17188 8.04785 5.17871 8.00732 5.18848 7.96899C5.19824 7.93359 5.20996 7.90015 5.22461 7.86743L5.25391 7.80762L5.2832 7.76099C5.30371 7.72998 5.32812 7.69995 5.35547 7.67188L5.38867 7.63892C5.44336 7.58813 5.50684 7.54517 5.57031 7.51685L5.61621 7.49634L5.5918 7.46021C5.54395 7.38989 5.51465 7.3269 5.5 7.24927C5.49316 7.21582 5.48926 7.17993 5.48828 7.13965V7.03955C5.49121 6.90625 5.50098 6.86157 5.54199 6.77319C5.56055 6.73218 5.58105 6.69849 5.60645 6.66602L5.63379 6.63477L5.6748 6.59253C5.84277 6.43384 6.09668 6.39209 6.30566 6.49048C6.40918 6.53833 6.49121 6.60889 6.5498 6.69897L6.57227 6.73657L6.5957 6.78223C6.60742 6.80933 6.61816 6.83789 6.62695 6.86768C6.63965 6.91309 6.64062 6.92871 6.64062 7.07251C6.64062 7.14478 6.63965 7.18701 6.6377 7.21606L6.63574 7.2395L6.63086 7.26733C6.61328 7.32886 6.58301 7.39551 6.5498 7.44727L6.52051 7.49561L6.58594 7.5293C6.63867 7.55615 6.68652 7.58862 6.72949 7.62549C6.86914 7.74487 6.95312 7.91235 6.9668 8.10205L6.9707 8.16162H7.0332H7.0957L7.09766 7.12964L7.09863 6.09839H6.06543H5.03223L5.0332 7.12964ZM5.90918 6.73633C5.93164 6.7229 5.95508 6.7124 5.97949 6.70581C6 6.7002 6.02832 6.69702 6.05762 6.69653C6.09375 6.6958 6.12988 6.69897 6.15332 6.70581C6.26758 6.7395 6.35938 6.83716 6.38281 6.94995C6.39258 6.99902 6.3916 7.15845 6.37988 7.20557C6.36133 7.2854 6.30176 7.36694 6.2334 7.40674C6.13672 7.46338 6.01758 7.46655 5.91504 7.41406C5.86816 7.39062 5.80957 7.33081 5.7832 7.28101C5.75293 7.22437 5.74219 7.17017 5.74219 7.07861C5.74219 6.98096 5.75 6.93311 5.77637 6.87695C5.78711 6.85571 5.80078 6.83521 5.81641 6.81592C5.83105 6.7981 5.84766 6.78149 5.86523 6.7666C5.87891 6.75537 5.89355 6.74512 5.90918 6.73633ZM5.78516 7.71484C5.69629 7.73096 5.6123 7.77588 5.54883 7.84058C5.49512 7.89478 5.4668 7.93896 5.44531 8.00122C5.42969 8.04785 5.41406 8.15112 5.42188 8.15918C5.4248 8.16235 5.71582 8.16431 6.06836 8.16309L6.70898 8.16162L6.71094 8.13745C6.71191 8.12476 6.71094 8.10938 6.70801 8.09253L6.69434 8.03149C6.67969 7.98291 6.65723 7.93188 6.63281 7.896C6.58398 7.82495 6.49902 7.76221 6.41309 7.73169L6.36035 7.71362L6.08105 7.71289L5.86133 7.71313L5.78516 7.71484ZM11.3877 5.78833C11.4092 5.73486 11.4453 5.70117 11.5 5.68384C11.5322 5.67407 11.5625 5.6731 11.5918 5.68066C11.6201 5.68823 11.6465 5.7041 11.6699 5.72803C11.7256 5.78271 11.7236 5.75977 11.7217 6.27319L11.7197 6.71777L11.7031 6.74878C11.6816 6.78906 11.6533 6.81592 11.6162 6.82983C11.5967 6.8374 11.5752 6.84131 11.5518 6.84155C11.46 6.84229 11.3975 6.78809 11.3799 6.69336C11.376 6.67163 11.374 6.50415 11.375 6.23706C11.377 5.85693 11.3789 5.81274 11.3877 5.78833ZM8.35742 7.03076L8.00098 7.03198V7.39185V7.75098L8.36035 7.39185C8.55762 7.19458 8.71777 7.03198 8.7168 7.03076H8.35742ZM9.47266 7.93457L9.9248 7.48145L10.3779 7.02881L10.8057 7.03076C11.04 7.03149 11.2305 7.03442 11.2285 7.03711L10.7773 7.48755L10.332 7.93457H9.90234H9.47266ZM8.63477 7.479C8.38867 7.72485 8.1875 7.92773 8.1875 7.93018L8.27051 7.93262L8.65039 7.93457H9.11133L9.5625 7.48315L10.0146 7.03198H9.54785H9.08105L8.63477 7.479ZM10.6992 7.93506L11.1504 7.48315L11.6016 7.03149L11.627 7.03564L11.6592 7.04321L11.6943 7.05444C11.8428 7.10547 11.9531 7.22681 11.9912 7.38062C12.0049 7.43604 12.0029 7.54248 11.9854 7.60156C11.9424 7.75391 11.8223 7.8728 11.6641 7.91968C11.6445 7.92578 11.6211 7.92871 11.5254 7.93018L11.1631 7.93262L10.6992 7.93506ZM11.4766 8.13623C11.4385 8.1543 11.4102 8.18359 11.3916 8.22388L11.377 8.25513L11.375 9.43579L11.374 10.6172H10.0527H8.73145L8.69922 10.6333C8.59082 10.687 8.57129 10.832 8.66113 10.9128C8.71777 10.9639 8.58398 10.9602 10.1758 10.9583L11.5947 10.9565L11.626 10.9397C11.6631 10.9204 11.6846 10.8979 11.7041 10.8599L11.7197 10.832V9.54028V8.24878L11.7012 8.21216C11.6826 8.1748 11.6494 8.14429 11.6084 8.12939C11.5732 8.11621 11.5117 8.11938 11.4766 8.13623ZM4.07715 10.1262C4.08984 10.1174 4.1123 10.1074 4.12891 10.103C4.15234 10.0969 4.54492 10.0957 6.07812 10.0962L7.99805 10.0974L8.02637 10.1106C8.06641 10.1292 8.09277 10.1536 8.1123 10.1902L8.12891 10.2219V10.5488V10.8755L8.11328 10.9053C8.09473 10.9409 8.06543 10.969 8.02637 10.9868L7.99805 11H6.06543H4.13281L4.10449 10.9868C4.08887 10.9795 4.06543 10.9634 4.05176 10.9502C4.03906 10.9373 4.02246 10.9136 4.01562 10.8979C4.00293 10.8699 4.00195 10.8599 4 10.5681C3.99902 10.3689 4.00098 10.2561 4.00488 10.2351C4.01367 10.197 4.04688 10.1467 4.07715 10.1262Z"></path></svg>